<svg width="32" height="27" viewBox="0 0 32 27" fill="none" xmlns="http://www.w3.org/2000/svg">
<path d="M27.2519 26.2081C25.8599 26.2081 24.7439 25.8361 23.9039 25.0921C23.0639 24.3481 22.6439 23.4121 22.6439 22.2841C22.6439 21.1321 23.0639 20.1841 23.9039 19.4401C24.7439 18.6721 25.8599 18.2881 27.2519 18.2881C28.6199 18.2881 29.7239 18.6721 30.5639 19.4401C31.4039 20.1841 31.8239 21.1321 31.8239 22.2841C31.8239 23.4121 31.4039 24.3481 30.5639 25.0921C29.7239 25.8361 28.6199 26.2081 27.2519 26.2081Z" fill="#0AFF9D"/>
<path d="M10.764 26.172C7.716 26.172 5.196 25.464 3.204 24.048C1.236 22.608 0.168 20.508 0 17.748H8.496C8.616 19.212 9.264 19.944 10.44 19.944C10.872 19.944 11.232 19.848 11.52 19.656C11.832 19.44 11.988 19.116 11.988 18.684C11.988 18.084 11.664 17.604 11.016 17.244C10.368 16.86 9.36 16.428 7.992 15.948C6.36 15.372 5.004 14.808 3.924 14.256C2.868 13.704 1.956 12.9 1.188 11.844C0.42 10.788 0.048 9.432 0.072 7.776C0.072 6.12 0.492 4.716 1.332 3.564C2.196 2.388 3.36 1.5 4.824 0.899999C6.312 0.299999 7.98 0 9.828 0C12.948 0 15.42 0.720001 17.244 2.16C19.092 3.6 20.064 5.628 20.16 8.244H11.556C11.532 7.524 11.352 7.008 11.016 6.696C10.68 6.384 10.272 6.228 9.792 6.228C9.456 6.228 9.18 6.348 8.964 6.588C8.748 6.804 8.64 7.116 8.64 7.524C8.64 8.1 8.952 8.58 9.576 8.964C10.224 9.324 11.244 9.768 12.636 10.296C14.244 10.896 15.564 11.472 16.596 12.024C17.652 12.576 18.564 13.344 19.332 14.328C20.1 15.312 20.484 16.548 20.484 18.036C20.484 19.596 20.1 21 19.332 22.248C18.564 23.472 17.448 24.432 15.984 25.128C14.52 25.824 12.78 26.172 10.764 26.172Z" fill="white"/>
</svg>
