<svg width="32" height="27" viewBox="0 0 32 27" fill="none" xmlns="http://www.w3.org/2000/svg">
<path d="M27.2519 26.2882C25.8599 26.2882 24.7439 25.9162 23.9039 25.1722C23.0639 24.4282 22.6439 23.4922 22.6439 22.3642C22.6439 21.2122 23.0639 20.2642 23.9039 19.5202C24.7439 18.7522 25.8599 18.3682 27.2519 18.3682C28.6199 18.3682 29.7239 18.7522 30.5639 19.5202C31.4039 20.2642 31.8239 21.2122 31.8239 22.3642C31.8239 23.4922 31.4039 24.4282 30.5639 25.1722C29.7239 25.9162 28.6199 26.2882 27.2519 26.2882Z" fill="#0AFF9D"/>
<path d="M10.764 26.2521C7.716 26.2521 5.196 25.5441 3.204 24.1281C1.236 22.6881 0.168 20.5881 0 17.8281H8.496C8.616 19.2921 9.264 20.0241 10.44 20.0241C10.872 20.0241 11.232 19.9281 11.52 19.7361C11.832 19.5201 11.988 19.1961 11.988 18.7641C11.988 18.1641 11.664 17.6841 11.016 17.3241C10.368 16.9401 9.36 16.5081 7.992 16.0281C6.36 15.4521 5.004 14.8881 3.924 14.3361C2.868 13.7841 1.956 12.9801 1.188 11.9241C0.42 10.8681 0.048 9.51208 0.072 7.85608C0.072 6.20008 0.492 4.79608 1.332 3.64408C2.196 2.46808 3.36 1.58008 4.824 0.980077C6.312 0.380077 7.98 0.0800781 9.828 0.0800781C12.948 0.0800781 15.42 0.800079 17.244 2.24008C19.092 3.68008 20.064 5.70808 20.16 8.32408H11.556C11.532 7.60408 11.352 7.08808 11.016 6.77608C10.68 6.46408 10.272 6.30808 9.792 6.30808C9.456 6.30808 9.18 6.42808 8.964 6.66808C8.748 6.88408 8.64 7.19608 8.64 7.60408C8.64 8.18008 8.952 8.66008 9.576 9.04408C10.224 9.40408 11.244 9.84808 12.636 10.3761C14.244 10.9761 15.564 11.5521 16.596 12.1041C17.652 12.6561 18.564 13.4241 19.332 14.4081C20.1 15.3921 20.484 16.6281 20.484 18.1161C20.484 19.6761 20.1 21.0801 19.332 22.3281C18.564 23.5521 17.448 24.5121 15.984 25.2081C14.52 25.9041 12.78 26.2521 10.764 26.2521Z" fill="#656565"/>
</svg>
